<svg xmlns="http://www.w3.org/2000/svg" width="96" height="96" viewBox="0 0 96 96">
  <g fill="none" stroke="#4f86aa" stroke-width="8" stroke-linecap="round" stroke-linejoin="round" opacity=".72">
    <path d="M48 12v72"/>
    <path d="M18 31l60 34"/>
    <path d="M78 31L18 65"/>
    <path d="M39 23l9 9 9-9"/>
    <path d="M39 73l9-9 9 9"/>
    <path d="M27 38l12 3-9 9"/>
    <path d="M69 58l-12-3 9-9"/>
    <path d="M69 38l-12 3 9 9"/>
    <path d="M27 58l12-3-9-9"/>
  </g>
  <g fill="none" stroke="#fbfdff" stroke-width="4.5" stroke-linecap="round" stroke-linejoin="round">
    <path d="M48 12v72"/>
    <path d="M18 31l60 34"/>
    <path d="M78 31L18 65"/>
    <path d="M39 23l9 9 9-9"/>
    <path d="M39 73l9-9 9 9"/>
    <path d="M27 38l12 3-9 9"/>
    <path d="M69 58l-12-3 9-9"/>
    <path d="M69 38l-12 3 9 9"/>
    <path d="M27 58l12-3-9-9"/>
  </g>
  <circle cx="48" cy="48" r="6.4" fill="#4f86aa" opacity=".72"/>
  <circle cx="48" cy="48" r="4" fill="#ffffff" opacity=".96"/>
</svg>
