<svg xmlns="http://www.w3.org/2000/svg" width="96" height="96" viewBox="0 0 96 96">
  <g fill="none" stroke="#4f86aa" stroke-width="7.5" stroke-linecap="round" stroke-linejoin="round" opacity=".72">
    <path d="M48 8v80"/>
    <path d="M8 48h80"/>
    <path d="M20 20l56 56"/>
    <path d="M76 20L20 76"/>
    <path d="M35 19l13 13 13-13"/>
    <path d="M35 77l13-13 13 13"/>
    <path d="M19 35l13 13-13 13"/>
    <path d="M77 35L64 48l13 13"/>
  </g>
  <g fill="none" stroke="#fbfdff" stroke-width="4" stroke-linecap="round" stroke-linejoin="round">
    <path d="M48 8v80"/>
    <path d="M8 48h80"/>
    <path d="M20 20l56 56"/>
    <path d="M76 20L20 76"/>
    <path d="M35 19l13 13 13-13"/>
    <path d="M35 77l13-13 13 13"/>
    <path d="M19 35l13 13-13 13"/>
    <path d="M77 35L64 48l13 13"/>
  </g>
  <circle cx="48" cy="48" r="7.2" fill="#4f86aa" opacity=".72"/>
  <circle cx="48" cy="48" r="4.7" fill="#ffffff" opacity=".96"/>
</svg>
